<?xml version="1.0" encoding="iso-8859-1"?>
<!-- Generator: Adobe Illustrator 22.1.0, SVG Export Plug-In . SVG Version: 6.00 Build 0)  -->
<svg xmlns="http://www.w3.org/2000/svg" xmlns:xlink="http://www.w3.org/1999/xlink" version="1.1" id="Layer_3" x="0px" y="0px" viewBox="0 0 64 64" style="enable-background:new 0 0 64 64;" xml:space="preserve" width="512" height="512">
<g>
	<g>
		<path style="fill:#5789D6;" d="M4,34v-4C4,14.536,16.536,2,32,2h0c15.464,0,28,12.536,28,28v4h-6v-4c0-12.15-9.85-22-22-22h0    c-12.15,0-22,9.85-22,22v4H4z"/>
	</g>
	<g>
		<path style="fill:#699CE6;" d="M7,34v-4C7,16.193,18.193,5,32,5h0c13.807,0,25,11.193,25,25v4h-3v-4c0-12.15-9.85-22-22-22h0    c-12.15,0-22,9.85-22,22v4H7z"/>
	</g>
	<g>
		<path style="fill:#999999;" d="M4,58h4V42H4c-1.105,0-2,0.895-2,2v12C2,57.105,2.895,58,4,58z"/>
	</g>
	<g>
		<path style="fill:#999999;" d="M60,58h-4V42h4c1.105,0,2,0.895,2,2v12C62,57.105,61.105,58,60,58z"/>
	</g>
	<g>
		<path style="fill:#BAB8B9;" d="M4,42c-1.105,0-2,0.895-2,2v12c0,1.105,0.895,2,2,2h1V42H4z"/>
	</g>
	<g>
		<path style="fill:#BAB8B9;" d="M59,56V44c0-1.105-0.895-2-2-2h-1v16h1C58.105,58,59,57.105,59,56z"/>
	</g>
	<g>
		<path style="fill:#5789D6;" d="M16,62h-6c-1.105,0-2-0.895-2-2V40c0-1.105,0.895-2,2-2h6c1.105,0,2,0.895,2,2v20    C18,61.105,17.105,62,16,62z"/>
	</g>
	<g>
		<path style="fill:#5789D6;" d="M48,62h6c1.105,0,2-0.895,2-2V40c0-1.105-0.895-2-2-2h-6c-1.105,0-2,0.895-2,2v20    C46,61.105,46.895,62,48,62z"/>
	</g>
	<g>
		<path style="fill:#699CE6;" d="M15,60V40c0-1.105-0.895-2-2-2h-3c-1.105,0-2,0.895-2,2v20c0,1.105,0.895,2,2,2h3    C14.105,62,15,61.105,15,60z"/>
	</g>
	<g>
		<path style="fill:#699CE6;" d="M53,60V40c0-1.105-0.895-2-2-2h-3c-1.105,0-2,0.895-2,2v20c0,1.105,0.895,2,2,2h3    C52.105,62,53,61.105,53,60z"/>
	</g>
	<g>
		<path style="fill:#CA5057;" d="M44,24.269c0-3.737-2.814-7.017-6.543-7.254c-2.141-0.136-4.088,0.693-5.457,2.091    c-1.369-1.398-3.316-2.227-5.457-2.091C22.814,17.252,20,20.531,20,24.269v0c0,2.378,0.998,4.646,2.751,6.253L32,39l9.249-8.479    C43.002,28.915,44,26.646,44,24.269L44,24.269z"/>
	</g>
	<g>
		<path d="M16,63h-6c-1.654,0-3-1.346-3-3V40c0-1.654,1.346-3,3-3h6c1.654,0,3,1.346,3,3v20C19,61.654,17.654,63,16,63z M10,39    c-0.552,0-1,0.448-1,1v20c0,0.552,0.448,1,1,1h6c0.552,0,1-0.448,1-1V40c0-0.552-0.448-1-1-1H10z"/>
	</g>
	<g>
		<path d="M8,59H4c-1.654,0-3-1.346-3-3V44c0-1.654,1.346-3,3-3h4c0.553,0,1,0.447,1,1v16C9,58.553,8.553,59,8,59z M4,43    c-0.552,0-1,0.448-1,1v12c0,0.552,0.448,1,1,1h3V43H4z"/>
	</g>
	<g>
		<rect x="13" y="41" width="2" height="18"/>
	</g>
	<g>
		<path d="M54,63h-6c-1.654,0-3-1.346-3-3V40c0-1.654,1.346-3,3-3h6c1.654,0,3,1.346,3,3v20C57,61.654,55.654,63,54,63z M48,39    c-0.552,0-1,0.448-1,1v20c0,0.552,0.448,1,1,1h6c0.552,0,1-0.448,1-1V40c0-0.552-0.448-1-1-1H48z"/>
	</g>
	<g>
		<path d="M60,59h-4c-0.553,0-1-0.447-1-1V42c0-0.553,0.447-1,1-1h4c1.654,0,3,1.346,3,3v12C63,57.654,61.654,59,60,59z M57,57h3    c0.552,0,1-0.448,1-1V44c0-0.552-0.448-1-1-1h-3V57z"/>
	</g>
	<g>
		<rect x="49" y="41" width="2" height="18"/>
	</g>
	<g>
		<path d="M61,42h-2V30C59,15.112,46.888,3,32,3S5,15.112,5,30v12H3V30C3,14.01,16.01,1,32,1s29,13.01,29,29V42z"/>
	</g>
	<g>
		<path d="M60,35h-6c-0.553,0-1-0.447-1-1v-4c0-11.579-9.421-21-21-21s-21,9.421-21,21v4c0,0.553-0.447,1-1,1H4v-2h5v-3    C9,17.317,19.317,7,32,7s23,10.317,23,23v3h5V35z"/>
	</g>
	<g>
		<path d="M27,58c-0.011,0-0.022,0-0.033-0.001c-0.459-0.015-0.849-0.341-0.944-0.789l-2.342-10.927l-1.762,4.11    C21.762,50.762,21.4,51,21,51h-3v-2h2.341l2.74-6.394c0.171-0.4,0.58-0.646,1.016-0.602c0.434,0.042,0.79,0.359,0.881,0.785    l2.161,10.085l0.899-3.149C28.161,49.296,28.554,49,29,49h2.279l1.772-5.316C33.188,43.275,33.569,43,34,43    s0.812,0.275,0.948,0.684L36.721,49H39c0.409,0,0.776,0.249,0.929,0.629L41,52.308l1.071-2.679C42.224,49.249,42.591,49,43,49h3v2    h-2.323l-1.748,4.371C41.776,55.751,41.409,56,41,56s-0.776-0.249-0.929-0.629L38.323,51H36c-0.431,0-0.812-0.275-0.948-0.684    L34,47.162l-1.052,3.154C32.812,50.725,32.431,51,32,51h-2.246l-1.792,6.274C27.839,57.705,27.445,58,27,58z"/>
	</g>
	<g>
		<path d="M32,40c-0.242,0-0.484-0.088-0.676-0.263l-9.249-8.479C20.121,29.468,19,26.92,19,24.269c0-4.36,3.286-7.985,7.48-8.252    c2.004-0.132,3.971,0.5,5.52,1.742c1.55-1.242,3.525-1.866,5.52-1.742c4.194,0.267,7.48,3.892,7.48,8.252    c0,2.651-1.121,5.199-3.075,6.99l-9.249,8.479C32.484,39.912,32.242,40,32,40z M26.993,18c-0.128,0-0.257,0.004-0.386,0.013    C23.463,18.213,21,20.961,21,24.269c0,2.092,0.885,4.103,2.427,5.516L32,37.644l8.573-7.859C42.115,28.371,43,26.36,43,24.269    c0-3.308-2.463-6.056-5.607-6.256c-1.755-0.105-3.454,0.542-4.678,1.792c-0.377,0.385-1.053,0.385-1.43,0    C30.151,18.646,28.604,18,26.993,18z"/>
	</g>
	<g>
		<path d="M37,28v-2c1.103,0,2-0.897,2-2s-0.897-2-2-2v-2c2.206,0,4,1.794,4,4S39.206,28,37,28z"/>
	</g>
</g>
</svg>
